Results
version=1
nRows=4
nColumns=205
inDegrees=yes
endheader
time	/jointset/ground_pelvis/pelvis_tilt/value	/jointset/ground_pelvis/pelvis_tilt/speed	/jointset/ground_pelvis/pelvis_list/value	/jointset/ground_pelvis/pelvis_list/speed	/jointset/ground_pelvis/pelvis_rotation/value	/jointset/ground_pelvis/pelvis_rotation/speed	/jointset/ground_pelvis/pelvis_tx/value	/jointset/ground_pelvis/pelvis_tx/speed	/jointset/ground_pelvis/pelvis_ty/value	/jointset/ground_pelvis/pelvis_ty/speed	/jointset/ground_pelvis/pelvis_tz/value	/jointset/ground_pelvis/pelvis_tz/speed	/jointset/hip_r/hip_flexion_r/value	/jointset/hip_r/hip_flexion_r/speed	/jointset/hip_r/hip_adduction_r/value	/jointset/hip_r/hip_adduction_r/speed	/jointset/hip_r/hip_rotation_r/value	/jointset/hip_r/hip_rotation_r/speed	/jointset/walker_knee_r/knee_angle_r/value	/jointset/walker_knee_r/knee_angle_r/speed	/jointset/patellofemoral_r/knee_angle_r_beta/value	/jointset/patellofemoral_r/knee_angle_r_beta/speed	/jointset/ankle_r/ankle_angle_r/value	/jointset/ankle_r/ankle_angle_r/speed	/jointset/subtalar_r/subtalar_angle_r/value	/jointset/subtalar_r/subtalar_angle_r/speed	/jointset/mtp_r/mtp_angle_r/value	/jointset/mtp_r/mtp_angle_r/speed	/jointset/hip_l/hip_flexion_l/value	/jointset/hip_l/hip_flexion_l/speed	/jointset/hip_l/hip_adduction_l/value	/jointset/hip_l/hip_adduction_l/speed	/jointset/hip_l/hip_rotation_l/value	/jointset/hip_l/hip_rotation_l/speed	/jointset/walker_knee_l/knee_angle_l/value	/jointset/walker_knee_l/knee_angle_l/speed	/jointset/patellofemoral_l/knee_angle_l_beta/value	/jointset/patellofemoral_l/knee_angle_l_beta/speed	/jointset/ankle_l/ankle_angle_l/value	/jointset/ankle_l/ankle_angle_l/speed	/jointset/subtalar_l/subtalar_angle_l/value	/jointset/subtalar_l/subtalar_angle_l/speed	/jointset/mtp_l/mtp_angle_l/value	/jointset/mtp_l/mtp_angle_l/speed	/jointset/back/lumbar_extension/value	/jointset/back/lumbar_extension/speed	/jointset/back/lumbar_bending/value	/jointset/back/lumbar_bending/speed	/jointset/back/lumbar_rotation/value	/jointset/back/lumbar_rotation/speed	/jointset/acromial_r/arm_flex_r/value	/jointset/acromial_r/arm_flex_r/speed	/jointset/acromial_r/arm_add_r/value	/jointset/acromial_r/arm_add_r/speed	/jointset/acromial_r/arm_rot_r/value	/jointset/acromial_r/arm_rot_r/speed	/jointset/elbow_r/elbow_flex_r/value	/jointset/elbow_r/elbow_flex_r/speed	/jointset/radioulnar_r/pro_sup_r/value	/jointset/radioulnar_r/pro_sup_r/speed	/jointset/radius_hand_r/wrist_flex_r/value	/jointset/radius_hand_r/wrist_flex_r/speed	/jointset/radius_hand_r/wrist_dev_r/value	/jointset/radius_hand_r/wrist_dev_r/speed	/jointset/acromial_l/arm_flex_l/value	/jointset/acromial_l/arm_flex_l/speed	/jointset/acromial_l/arm_add_l/value	/jointset/acromial_l/arm_add_l/speed	/jointset/acromial_l/arm_rot_l/value	/jointset/acromial_l/arm_rot_l/speed	/jointset/elbow_l/elbow_flex_l/value	/jointset/elbow_l/elbow_flex_l/speed	/jointset/radioulnar_l/pro_sup_l/value	/jointset/radioulnar_l/pro_sup_l/speed	/jointset/radius_hand_l/wrist_flex_l/value	/jointset/radius_hand_l/wrist_flex_l/speed	/jointset/radius_hand_l/wrist_dev_l/value	/jointset/radius_hand_l/wrist_dev_l/speed	/forceset/addbrev_r/activation	/forceset/addlong_r/activation	/forceset/addlong_r/fiber_length	/forceset/addmagDist_r/activation	/forceset/addmagIsch_r/activation	/forceset/addmagIsch_r/fiber_length	/forceset/addmagMid_r/activation	/forceset/addmagProx_r/activation	/forceset/bflh_r/activation	/forceset/bflh_r/fiber_length	/forceset/bfsh_r/activation	/forceset/edl_r/activation	/forceset/edl_r/fiber_length	/forceset/ehl_r/activation	/forceset/ehl_r/fiber_length	/forceset/fdl_r/activation	/forceset/fdl_r/fiber_length	/forceset/fhl_r/activation	/forceset/fhl_r/fiber_length	/forceset/gaslat_r/activation	/forceset/gaslat_r/fiber_length	/forceset/gasmed_r/activation	/forceset/gasmed_r/fiber_length	/forceset/glmax1_r/activation	/forceset/glmax2_r/activation	/forceset/glmax3_r/activation	/forceset/glmed1_r/activation	/forceset/glmed2_r/activation	/forceset/glmed3_r/activation	/forceset/glmin1_r/activation	/forceset/glmin2_r/activation	/forceset/glmin3_r/activation	/forceset/glmin3_r/fiber_length	/forceset/grac_r/activation	/forceset/iliacus_r/activation	/forceset/perbrev_r/activation	/forceset/perbrev_r/fiber_length	/forceset/perlong_r/activation	/forceset/perlong_r/fiber_length	/forceset/piri_r/activation	/forceset/piri_r/fiber_length	/forceset/psoas_r/activation	/forceset/recfem_r/activation	/forceset/recfem_r/fiber_length	/forceset/sart_r/activation	/forceset/semimem_r/activation	/forceset/semimem_r/fiber_length	/forceset/semiten_r/activation	/forceset/semiten_r/fiber_length	/forceset/soleus_r/activation	/forceset/soleus_r/fiber_length	/forceset/tfl_r/activation	/forceset/tfl_r/fiber_length	/forceset/tibant_r/activation	/forceset/tibant_r/fiber_length	/forceset/tibpost_r/activation	/forceset/tibpost_r/fiber_length	/forceset/vasint_r/activation	/forceset/vasint_r/fiber_length	/forceset/vaslat_r/activation	/forceset/vaslat_r/fiber_length	/forceset/vasmed_r/activation	/forceset/vasmed_r/fiber_length	/forceset/addbrev_l/activation	/forceset/addlong_l/activation	/forceset/addlong_l/fiber_length	/forceset/addmagDist_l/activation	/forceset/addmagIsch_l/activation	/forceset/addmagIsch_l/fiber_length	/forceset/addmagMid_l/activation	/forceset/addmagProx_l/activation	/forceset/bflh_l/activation	/forceset/bflh_l/fiber_length	/forceset/bfsh_l/activation	/forceset/edl_l/activation	/forceset/edl_l/fiber_length	/forceset/ehl_l/activation	/forceset/ehl_l/fiber_length	/forceset/fdl_l/activation	/forceset/fdl_l/fiber_length	/forceset/fhl_l/activation	/forceset/fhl_l/fiber_length	/forceset/gaslat_l/activation	/forceset/gaslat_l/fiber_length	/forceset/gasmed_l/activation	/forceset/gasmed_l/fiber_length	/forceset/glmax1_l/activation	/forceset/glmax2_l/activation	/forceset/glmax3_l/activation	/forceset/glmed1_l/activation	/forceset/glmed2_l/activation	/forceset/glmed3_l/activation	/forceset/glmin1_l/activation	/forceset/glmin2_l/activation	/forceset/glmin3_l/activation	/forceset/glmin3_l/fiber_length	/forceset/grac_l/activation	/forceset/iliacus_l/activation	/forceset/perbrev_l/activation	/forceset/perbrev_l/fiber_length	/forceset/perlong_l/activation	/forceset/perlong_l/fiber_length	/forceset/piri_l/activation	/forceset/piri_l/fiber_length	/forceset/psoas_l/activation	/forceset/recfem_l/activation	/forceset/recfem_l/fiber_length	/forceset/sart_l/activation	/forceset/semimem_l/activation	/forceset/semimem_l/fiber_length	/forceset/semiten_l/activation	/forceset/semiten_l/fiber_length	/forceset/soleus_l/activation	/forceset/soleus_l/fiber_length	/forceset/tfl_l/activation	/forceset/tfl_l/fiber_length	/forceset/tibant_l/activation	/forceset/tibant_l/fiber_length	/forceset/tibpost_l/activation	/forceset/tibpost_l/fiber_length	/forceset/vasint_l/activation	/forceset/vasint_l/fiber_length	/forceset/vaslat_l/activation	/forceset/vaslat_l/fiber_length	/forceset/vasmed_l/activation	/forceset/vasmed_l/fiber_length
      0.00680481	      0.06799786	     18.45459797	     -0.00056307	     -0.11845388	      0.00099204	      0.37699066	      0.00003074	      0.00817383	      0.93991452	     -0.02863306	     -0.00000176	     -0.00063052	      5.80321666	    -33.67929307	     -0.00078087	     -0.21085185	     -0.06519360	    -18.05007281	     -0.15550228	    -41.78436888	     -0.00271403	     -0.72927481	     -1.16457599	   -309.77735874	     -0.00000000	     -0.00000000	      0.00000000	      0.00000000	     -0.11975071	    -32.20257421	     -0.00181913	     -0.39592344	     -0.06097553	    -16.62275721	     -0.14148113	    -39.20726773	     -0.00246931	     -0.68429591	     -1.16383702	   -309.49936678	      0.00000000	      0.00000000	      0.00000000	      0.00000000	     -0.07558880	    -20.53547388	      0.00065609	      0.13458423	     -0.00097413	     -0.37377058	      0.01112507	      3.05339382	      0.00020452	      0.07005135	     -0.00042058	     -0.10860694	      0.00226107	     -0.97657625	      0.00624211	      0.13861251	     -0.00000000	     -0.00000000	     -0.00000000	      0.00000000	      0.01114722	      3.05708251	      0.00045561	      0.11188118	     -0.00037473	     -0.10097585	      0.00223714	     -0.98055965	      0.00618357	      0.12885959	     -0.00000000	     -0.00000000	     -0.00000000	     -0.00000000	      0.00912388	      0.00912388	      0.10807201	      0.00912388	      0.00912388	      0.12936865	      0.00912388	      0.00912388	      0.00912388	      0.09481988	      0.00912388	      0.00912388	      0.06974067	      0.00912388	      0.07871849	      0.00912388	      0.04535299	      0.00912388	      0.05126617	      0.00912388	      0.06968631	      0.00912388	      0.05648151	      0.00912388	      0.00912388	      0.00912388	      0.00912388	      0.00912388	      0.00912388	      0.00912388	      0.00912388	      0.00912388	      0.03913733	      0.00912388	      0.00912388	      0.00912388	      0.04846420	      0.00912388	      0.05401851	      0.00912388	      0.02440784	      0.00912388	      0.00912388	      0.06107171	      0.00912388	      0.00912388	      0.06996734	      0.00912388	      0.21600113	      0.00912388	      0.04748762	      0.00912388	      0.09409495	      0.00912388	      0.06689077	      0.00912388	      0.03913526	      0.00912388	      0.07962280	      0.00912388	      0.07861268	      0.00912388	      0.08028510	      0.00912388	      0.00912388	      0.11284714	      0.00912388	      0.00912388	      0.12514993	      0.00912388	      0.00912388	      0.00912388	      0.08965364	      0.00912388	      0.00912388	      0.06974032	      0.00912388	      0.07871811	      0.00912388	      0.04535302	      0.00912388	      0.05126623	      0.00912388	      0.06968474	      0.00912388	      0.05648186	      0.00912388	      0.00912388	      0.00912388	      0.00912388	      0.00912388	      0.00912388	      0.00912388	      0.00912388	      0.00912388	      0.03796463	      0.00912388	      0.00912388	      0.00912388	      0.04846425	      0.00912388	      0.05401856	      0.00912388	      0.02334471	      0.00912388	      0.00912388	      0.06465847	      0.00912388	      0.00912388	      0.06548310	      0.00912388	      0.21098743	      0.00912388	      0.04748792	      0.00912388	      0.09710866	      0.00912388	      0.06689031	      0.00912388	      0.03913530	      0.00912388	      0.07963182	      0.00912388	      0.07862020	      0.00912388	      0.08029292
      0.00862887	      0.10494381	     21.97046110	     -0.00077028	     -0.10609507	      0.00184197	      0.55984040	      0.00004697	      0.00957605	      0.93985244	     -0.03963513	     -0.00000316	     -0.00090723	      5.73595082	    -39.91017187	     -0.00119691	     -0.24335664	     -0.10162029	    -21.82534606	     -0.23867705	    -49.19098770	     -0.00416570	     -0.85854470	     -1.77869699	   -361.68795034	     -0.00000000	     -0.00000000	      0.00000000	      0.00000000	     -0.18396440	    -38.04061091	     -0.00252253	     -0.36689426	     -0.09429933	    -19.84048225	     -0.21933836	    -45.93886605	     -0.00382818	     -0.80178447	     -1.77733822	   -361.28393719	      0.00000000	      0.00000000	      0.00000000	      0.00000000	     -0.11671707	    -24.46668675	      0.00088786	      0.11633033	     -0.00181909	     -0.55773270	      0.01726549	      3.66690967	      0.00035752	      0.09828303	     -0.00063271	     -0.12307468	      0.00027936	     -1.19368640	      0.00652468	      0.17095941	     -0.00000000	      0.00000000	     -0.00000000	      0.00000000	      0.01729298	      3.66891673	      0.00066918	      0.12103480	     -0.00057582	     -0.11893163	      0.00024967	     -1.19585471	      0.00645201	      0.16565830	     -0.00000000	      0.00000000	     -0.00000000	      0.00000000	      0.00888903	      0.00888903	      0.10812671	      0.00888903	      0.00888903	      0.12932531	      0.00888903	      0.00888903	      0.00888903	      0.09480326	      0.00888903	      0.00888903	      0.07009085	      0.00888903	      0.07907876	      0.00888903	      0.04531135	      0.00888903	      0.05117442	      0.00888903	      0.06935338	      0.00888903	      0.05614656	      0.00888903	      0.00888903	      0.00888903	      0.00888903	      0.00888903	      0.00888903	      0.00888903	      0.00888903	      0.00888903	      0.03911996	      0.00888903	      0.00888903	      0.00888903	      0.04841218	      0.00888903	      0.05395847	      0.00888903	      0.02438908	      0.00888903	      0.00888903	      0.06105553	      0.00888903	      0.00888903	      0.06996268	      0.00888903	      0.21599547	      0.00888903	      0.04715606	      0.00888903	      0.09410534	      0.00888903	      0.06731950	      0.00888903	      0.03908040	      0.00888903	      0.07956509	      0.00888903	      0.07856457	      0.00888903	      0.08023533	      0.00888903	      0.00888903	      0.11289919	      0.00888903	      0.00888903	      0.12511358	      0.00888903	      0.00888903	      0.00888903	      0.08964066	      0.00888903	      0.00888903	      0.07009017	      0.00888903	      0.07907804	      0.00888903	      0.04531141	      0.00888903	      0.05117457	      0.00888903	      0.06935136	      0.00888903	      0.05614725	      0.00888903	      0.00888903	      0.00888903	      0.00888903	      0.00888903	      0.00888903	      0.00888903	      0.00888903	      0.00888903	      0.03794499	      0.00888903	      0.00888903	      0.00888903	      0.04841228	      0.00888903	      0.05395857	      0.00888903	      0.02332601	      0.00888903	      0.00888903	      0.06464174	      0.00888903	      0.00888903	      0.06548052	      0.00888903	      0.21098581	      0.00888903	      0.04715667	      0.00888903	      0.09711341	      0.00888903	      0.06731863	      0.00888903	      0.03908049	      0.00888903	      0.07957770	      0.00888903	      0.07857506	      0.00888903	      0.08024624
      0.01045293	      0.14785449	     25.00243810	     -0.00094095	     -0.07862402	      0.00305155	      0.77091848	      0.00006552	      0.01072404	      0.93976922	     -0.05178784	     -0.00000509	     -0.00122090	      5.65819248	    -45.19865577	     -0.00166112	     -0.26354242	     -0.14458657	    -25.22496034	     -0.33417677	    -55.31376287	     -0.00583248	     -0.96540728	     -2.47737099	   -402.60394339	     -0.00000000	     -0.00000000	      0.00000000	      0.00000000	     -0.25795561	    -42.93802610	     -0.00312792	     -0.28904285	     -0.13309328	    -22.62624658	     -0.30829605	    -51.39406522	     -0.00538078	     -0.89699565	     -2.47515041	   -402.06118431	      0.00000000	     -0.00000000	      0.00000000	      0.00000000	     -0.16452168	    -27.86425384	      0.00106941	      0.07983621	     -0.00302642	     -0.77068455	      0.02445891	      4.20896323	      0.00056505	      0.12978789	     -0.00086634	     -0.13223754	     -0.00208471	     -1.39611355	      0.00686499	      0.20197932	     -0.00000000	     -0.00000000	     -0.00000000	      0.00000000	      0.02448782	      4.20837034	      0.00089278	      0.12299063	     -0.00080654	     -0.13349018	     -0.00211594	     -1.39547759	      0.00678859	      0.20357641	     -0.00000000	      0.00000000	     -0.00000000	     -0.00000000	      0.00865419	      0.00865419	      0.10819154	      0.00865419	      0.00865419	      0.12927406	      0.00865419	      0.00865419	      0.00865419	      0.09478234	      0.00865419	      0.00865419	      0.07048967	      0.00865419	      0.07949452	      0.00865419	      0.04525484	      0.00865419	      0.05105229	      0.00865419	      0.06895928	      0.00865419	      0.05574420	      0.00865419	      0.00865419	      0.00865419	      0.00865419	      0.00865419	      0.00865419	      0.00865419	      0.00865419	      0.00865419	      0.03909919	      0.00865419	      0.00865419	      0.00865419	      0.04834902	      0.00865419	      0.05388099	      0.00865419	      0.02436478	      0.00865419	      0.00865419	      0.06103495	      0.00865419	      0.00865419	      0.06995655	      0.00865419	      0.21598844	      0.00865419	      0.04676751	      0.00865419	      0.09411873	      0.00865419	      0.06781222	      0.00865419	      0.03900804	      0.00865419	      0.07949597	      0.00865419	      0.07850699	      0.00865419	      0.08017628	      0.00865419	      0.00865419	      0.11296036	      0.00865419	      0.00865419	      0.12507060	      0.00865419	      0.00865419	      0.00865419	      0.08962428	      0.00865419	      0.00865419	      0.07048854	      0.00865419	      0.07949330	      0.00865419	      0.04525497	      0.00865419	      0.05105257	      0.00865419	      0.06895675	      0.00865419	      0.05574539	      0.00865419	      0.00865419	      0.00865419	      0.00865419	      0.00865419	      0.00865419	      0.00865419	      0.00865419	      0.00865419	      0.03792169	      0.00865419	      0.00865419	      0.00865419	      0.04834919	      0.00865419	      0.05388118	      0.00865419	      0.02330209	      0.00865419	      0.00865419	      0.06462054	      0.00865419	      0.00865419	      0.06547695	      0.00865419	      0.21098340	      0.00865419	      0.04676854	      0.00865419	      0.09711959	      0.00865419	      0.06781077	      0.00865419	      0.03900821	      0.00865419	      0.07951318	      0.00865419	      0.07852129	      0.00865419	      0.08019113
      0.01281712	      0.21098486	     28.29027138	     -0.00106525	     -0.02330899	      0.00523423	      1.08207433	      0.00009231	      0.01188307	      0.93962666	     -0.06908475	     -0.00000851	     -0.00167639	      5.54445317	    -50.79836026	     -0.00229668	     -0.27012205	     -0.20893310	    -29.11699561	     -0.47262401	    -61.48947914	     -0.00824885	     -1.07319387	     -3.47721058	   -440.49180112	     -0.00000000	     -0.00000000	      0.00000000	      0.00000000	     -0.36575410	    -48.03409013	     -0.00362766	     -0.12233744	     -0.19028555	    -25.65139835	     -0.43646473	    -56.71639641	     -0.00761775	     -0.98988786	     -3.47348109	   -439.75382080	      0.00000000	      0.00000000	      0.00000000	      0.00000000	     -0.23491292	    -31.55902729	      0.00117903	      0.00909896	     -0.00521250	     -1.08538831	      0.03514674	      4.81555014	      0.00092441	      0.17492533	     -0.00118596	     -0.13685349	     -0.00567690	     -1.63944602	      0.00738852	      0.24068308	     -0.00000000	     -0.00000000	     -0.00000000	     -0.00000000	      0.03516909	      4.81037955	      0.00117721	      0.11598938	     -0.00113986	     -0.14761411	     -0.00570105	     -1.63387687	      0.00732964	      0.25445936	     -0.00000000	      0.00000000	     -0.00000000	     -0.00000000	      0.00834980	      0.00834980	      0.10828706	      0.00834980	      0.00834980	      0.12919788	      0.00834980	      0.00834980	      0.00834980	      0.09474949	      0.00834980	      0.00834980	      0.07105333	      0.00834980	      0.08009023	      0.00834980	      0.04516002	      0.00834980	      0.05085644	      0.00834980	      0.06837738	      0.00834980	      0.05514971	      0.00834980	      0.00834980	      0.00834980	      0.00834980	      0.00834980	      0.00834980	      0.00834980	      0.00834980	      0.00834980	      0.03906791	      0.00834980	      0.00834980	      0.00834980	      0.04825435	      0.00834980	      0.05375955	      0.00834980	      0.02432567	      0.00834980	      0.00834980	      0.06100259	      0.00834980	      0.00834980	      0.06994642	      0.00834980	      0.21597727	      0.00834980	      0.04620965	      0.00834980	      0.09414014	      0.00834980	      0.06851909	      0.00834980	      0.03889286	      0.00834980	      0.07939256	      0.00834980	      0.07842089	      0.00834980	      0.08008858	      0.00834980	      0.00834980	      0.11304872	      0.00834980	      0.00834980	      0.12500679	      0.00834980	      0.00834980	      0.00834980	      0.08959846	      0.00834980	      0.00834980	      0.07105144	      0.00834980	      0.08008816	      0.00834980	      0.04516027	      0.00834980	      0.05085698	      0.00834980	      0.06837400	      0.00834980	      0.05515179	      0.00834980	      0.00834980	      0.00834980	      0.00834980	      0.00834980	      0.00834980	      0.00834980	      0.00834980	      0.00834980	      0.03788703	      0.00834980	      0.00834980	      0.00834980	      0.04825466	      0.00834980	      0.05375991	      0.00834980	      0.02326415	      0.00834980	      0.00834980	      0.06458736	      0.00834980	      0.00834980	      0.06547078	      0.00834980	      0.21097886	      0.00834980	      0.04621134	      0.00834980	      0.09712963	      0.00834980	      0.06851662	      0.00834980	      0.03889319	      0.00834980	      0.07941724	      0.00834980	      0.07844137	      0.00834980	      0.08010976
